<mxfile host="www.draw.io" modified="2020-02-05T19:35:30.055Z" agent="Mozilla/5.0 (Windows NT 10.0; Win64; x64; rv:68.0) Gecko/20100101 Firefox/68.0" etag="363YUoevqJtDf6L6FhAk" version="12.6.5" type="github">
  <diagram id="tKLSFN9qIgkbpF_6YdEr" name="Page-1">
    <mxGraphModel dx="1182" dy="761" grid="1" gridSize="10" guides="1" tooltips="1" connect="1" arrows="1" fold="1" page="1" pageScale="1" pageWidth="1100" pageHeight="850" math="0" shadow="0">
      <root>
        <mxCell id="0"/>
        <mxCell id="1" parent="0"/>
        <mxCell id="7SxAcVkQmoZjiOWq1pf1-21" value="" style="rounded=0;whiteSpace=wrap;html=1;" parent="1" vertex="1">
          <mxGeometry width="1560" height="840" as="geometry"/>
        </mxCell>
        <mxCell id="BWwTkyQzAVA0nwTKk7PY-33" value="" style="rounded=0;whiteSpace=wrap;html=1;" parent="1" vertex="1">
          <mxGeometry x="750" y="345" width="20" height="30" as="geometry"/>
        </mxCell>
        <mxCell id="7SxAcVkQmoZjiOWq1pf1-38" value="" style="endArrow=classic;html=1;dashed=1;" parent="1" edge="1">
          <mxGeometry width="50" height="50" relative="1" as="geometry">
            <mxPoint x="590" y="150" as="sourcePoint"/>
            <mxPoint x="300" y="150" as="targetPoint"/>
          </mxGeometry>
        </mxCell>
        <mxCell id="7SxAcVkQmoZjiOWq1pf1-39" value="clientBalance" style="text;html=1;align=center;verticalAlign=middle;resizable=0;points=[];labelBackgroundColor=#ffffff;" parent="7SxAcVkQmoZjiOWq1pf1-38" vertex="1" connectable="0">
          <mxGeometry x="-0.2759" y="2" relative="1" as="geometry">
            <mxPoint as="offset"/>
          </mxGeometry>
        </mxCell>
        <mxCell id="BWwTkyQzAVA0nwTKk7PY-30" value="" style="rounded=0;whiteSpace=wrap;html=1;" parent="1" vertex="1">
          <mxGeometry x="580" y="125" width="20" height="30" as="geometry"/>
        </mxCell>
        <mxCell id="BWwTkyQzAVA0nwTKk7PY-21" value="" style="rounded=0;whiteSpace=wrap;html=1;" parent="1" vertex="1">
          <mxGeometry x="420" y="80" width="20" height="30" as="geometry"/>
        </mxCell>
        <mxCell id="7SxAcVkQmoZjiOWq1pf1-46" value="" style="rounded=0;whiteSpace=wrap;html=1;" parent="1" vertex="1">
          <mxGeometry x="20" y="220" width="330" height="120" as="geometry"/>
        </mxCell>
        <mxCell id="BWwTkyQzAVA0nwTKk7PY-5" value="" style="group" parent="1" vertex="1" connectable="0">
          <mxGeometry x="150" y="70" width="20" height="770" as="geometry"/>
        </mxCell>
        <mxCell id="BWwTkyQzAVA0nwTKk7PY-3" value="" style="rounded=0;whiteSpace=wrap;html=1;" parent="BWwTkyQzAVA0nwTKk7PY-5" vertex="1">
          <mxGeometry width="20" height="738.7837837837837" as="geometry"/>
        </mxCell>
        <mxCell id="BWwTkyQzAVA0nwTKk7PY-4" value="" style="endArrow=none;dashed=1;html=1;" parent="BWwTkyQzAVA0nwTKk7PY-5" target="BWwTkyQzAVA0nwTKk7PY-3" edge="1">
          <mxGeometry width="50" height="50" relative="1" as="geometry">
            <mxPoint x="10" y="770" as="sourcePoint"/>
            <mxPoint x="9.5" y="-41.621621621621735" as="targetPoint"/>
          </mxGeometry>
        </mxCell>
        <mxCell id="7SxAcVkQmoZjiOWq1pf1-1" value="ACTOR" style="rounded=0;whiteSpace=wrap;html=1;" parent="1" vertex="1">
          <mxGeometry x="120" y="20" width="80" height="40" as="geometry"/>
        </mxCell>
        <mxCell id="7SxAcVkQmoZjiOWq1pf1-3" value="Warehouse System" style="rounded=0;whiteSpace=wrap;html=1;" parent="1" vertex="1">
          <mxGeometry x="260" y="20" width="80" height="40" as="geometry"/>
        </mxCell>
        <mxCell id="7SxAcVkQmoZjiOWq1pf1-9" value="ClientList" style="rounded=0;whiteSpace=wrap;html=1;" parent="1" vertex="1">
          <mxGeometry x="390" y="20" width="80" height="40" as="geometry"/>
        </mxCell>
        <mxCell id="7SxAcVkQmoZjiOWq1pf1-11" value="Client" style="rounded=0;whiteSpace=wrap;html=1;" parent="1" vertex="1">
          <mxGeometry x="550" y="20" width="80" height="40" as="geometry"/>
        </mxCell>
        <mxCell id="7SxAcVkQmoZjiOWq1pf1-13" value="OrderList" style="rounded=0;whiteSpace=wrap;html=1;" parent="1" vertex="1">
          <mxGeometry x="720" y="20" width="80" height="40" as="geometry"/>
        </mxCell>
        <mxCell id="7SxAcVkQmoZjiOWq1pf1-14" value="Order" style="rounded=0;whiteSpace=wrap;html=1;" parent="1" vertex="1">
          <mxGeometry x="830" y="20" width="80" height="35" as="geometry"/>
        </mxCell>
        <mxCell id="7SxAcVkQmoZjiOWq1pf1-18" value="Invoice" style="rounded=0;whiteSpace=wrap;html=1;" parent="1" vertex="1">
          <mxGeometry x="1250" y="15" width="80" height="35" as="geometry"/>
        </mxCell>
        <mxCell id="7SxAcVkQmoZjiOWq1pf1-22" value="SD Placing Order" style="rounded=0;whiteSpace=wrap;html=1;" parent="1" vertex="1">
          <mxGeometry width="110" height="20" as="geometry"/>
        </mxCell>
        <mxCell id="7SxAcVkQmoZjiOWq1pf1-26" value="Transaction" style="rounded=0;whiteSpace=wrap;html=1;" parent="1" vertex="1">
          <mxGeometry x="1070" y="15" width="90" height="35" as="geometry"/>
        </mxCell>
        <mxCell id="7SxAcVkQmoZjiOWq1pf1-27" value="Product" style="rounded=0;whiteSpace=wrap;html=1;" parent="1" vertex="1">
          <mxGeometry x="940" y="20" width="110" height="30" as="geometry"/>
        </mxCell>
        <mxCell id="7SxAcVkQmoZjiOWq1pf1-29" value="" style="endArrow=classic;html=1;" parent="1" edge="1">
          <mxGeometry width="50" height="50" relative="1" as="geometry">
            <mxPoint x="300" y="90" as="sourcePoint"/>
            <mxPoint x="430" y="90" as="targetPoint"/>
          </mxGeometry>
        </mxCell>
        <mxCell id="7SxAcVkQmoZjiOWq1pf1-30" value="lookupClient(id)" style="text;html=1;align=center;verticalAlign=middle;resizable=0;points=[];labelBackgroundColor=#ffffff;" parent="7SxAcVkQmoZjiOWq1pf1-29" vertex="1" connectable="0">
          <mxGeometry x="0.2308" y="2" relative="1" as="geometry">
            <mxPoint x="-10" as="offset"/>
          </mxGeometry>
        </mxCell>
        <mxCell id="7SxAcVkQmoZjiOWq1pf1-36" value="getClientBalance()" style="endArrow=classic;html=1;" parent="1" edge="1">
          <mxGeometry x="0.3103" width="50" height="50" relative="1" as="geometry">
            <mxPoint x="300" y="130" as="sourcePoint"/>
            <mxPoint x="590" y="130" as="targetPoint"/>
            <mxPoint as="offset"/>
          </mxGeometry>
        </mxCell>
        <mxCell id="7SxAcVkQmoZjiOWq1pf1-41" value="&lt;div&gt;isBalance&lt;/div&gt;&lt;div&gt;Exceeding()&lt;br&gt;&lt;/div&gt;" style="rounded=0;whiteSpace=wrap;html=1;" parent="1" vertex="1">
          <mxGeometry x="310" y="170" width="80" height="40" as="geometry"/>
        </mxCell>
        <mxCell id="7SxAcVkQmoZjiOWq1pf1-42" value="" style="endArrow=classic;html=1;dashed=1;entryX=0;entryY=1;entryDx=0;entryDy=0;" parent="1" target="7SxAcVkQmoZjiOWq1pf1-41" edge="1">
          <mxGeometry width="50" height="50" relative="1" as="geometry">
            <mxPoint x="320" y="210" as="sourcePoint"/>
            <mxPoint x="370" y="160" as="targetPoint"/>
          </mxGeometry>
        </mxCell>
        <mxCell id="7SxAcVkQmoZjiOWq1pf1-47" value="opt" style="rounded=0;whiteSpace=wrap;html=1;" parent="1" vertex="1">
          <mxGeometry x="20" y="220" width="50" height="20" as="geometry"/>
        </mxCell>
        <mxCell id="7SxAcVkQmoZjiOWq1pf1-48" value="&lt;div&gt;balance is&lt;/div&gt;&lt;div&gt;exceeding minimum&lt;br&gt;&lt;/div&gt;" style="text;html=1;align=center;verticalAlign=middle;resizable=0;points=[];autosize=1;" parent="1" vertex="1">
          <mxGeometry x="20" y="240" width="130" height="30" as="geometry"/>
        </mxCell>
        <mxCell id="7SxAcVkQmoZjiOWq1pf1-2" value="" style="endArrow=none;dashed=1;html=1;" parent="1" source="BWwTkyQzAVA0nwTKk7PY-3" edge="1">
          <mxGeometry width="50" height="50" relative="1" as="geometry">
            <mxPoint x="160" y="840" as="sourcePoint"/>
            <mxPoint x="159.5" y="60" as="targetPoint"/>
          </mxGeometry>
        </mxCell>
        <mxCell id="7SxAcVkQmoZjiOWq1pf1-49" value="" style="endArrow=classic;html=1;dashed=1;" parent="1" edge="1">
          <mxGeometry width="50" height="50" relative="1" as="geometry">
            <mxPoint x="300" y="290" as="sourcePoint"/>
            <mxPoint x="160" y="290" as="targetPoint"/>
          </mxGeometry>
        </mxCell>
        <mxCell id="7SxAcVkQmoZjiOWq1pf1-50" value="&lt;div&gt;Balance exceeding,&lt;/div&gt;&lt;div&gt;can&#39;t place order&lt;br&gt;&lt;/div&gt;" style="text;html=1;align=center;verticalAlign=middle;resizable=0;points=[];labelBackgroundColor=#ffffff;" parent="7SxAcVkQmoZjiOWq1pf1-49" vertex="1" connectable="0">
          <mxGeometry x="0.4571" y="-3" relative="1" as="geometry">
            <mxPoint x="32" y="3" as="offset"/>
          </mxGeometry>
        </mxCell>
        <mxCell id="7SxAcVkQmoZjiOWq1pf1-58" value="" style="rounded=0;whiteSpace=wrap;html=1;" parent="1" vertex="1">
          <mxGeometry x="210" y="420" width="1150" height="390" as="geometry"/>
        </mxCell>
        <mxCell id="7SxAcVkQmoZjiOWq1pf1-4" value="" style="endArrow=none;dashed=1;html=1;" parent="1" edge="1">
          <mxGeometry width="50" height="50" relative="1" as="geometry">
            <mxPoint x="300" y="840" as="sourcePoint"/>
            <mxPoint x="299.5" y="60" as="targetPoint"/>
          </mxGeometry>
        </mxCell>
        <mxCell id="7SxAcVkQmoZjiOWq1pf1-10" value="" style="endArrow=none;dashed=1;html=1;" parent="1" source="BWwTkyQzAVA0nwTKk7PY-21" edge="1">
          <mxGeometry width="50" height="50" relative="1" as="geometry">
            <mxPoint x="430" y="840" as="sourcePoint"/>
            <mxPoint x="429.5" y="60" as="targetPoint"/>
          </mxGeometry>
        </mxCell>
        <mxCell id="7SxAcVkQmoZjiOWq1pf1-12" value="" style="endArrow=none;dashed=1;html=1;" parent="1" source="BWwTkyQzAVA0nwTKk7PY-30" edge="1">
          <mxGeometry width="50" height="50" relative="1" as="geometry">
            <mxPoint x="590" y="840" as="sourcePoint"/>
            <mxPoint x="589.5" y="60" as="targetPoint"/>
          </mxGeometry>
        </mxCell>
        <mxCell id="7SxAcVkQmoZjiOWq1pf1-20" value="" style="endArrow=none;dashed=1;html=1;" parent="1" edge="1">
          <mxGeometry width="50" height="50" relative="1" as="geometry">
            <mxPoint x="1115" y="820" as="sourcePoint"/>
            <mxPoint x="1114.5" y="55" as="targetPoint"/>
          </mxGeometry>
        </mxCell>
        <mxCell id="7SxAcVkQmoZjiOWq1pf1-19" value="" style="endArrow=none;dashed=1;html=1;" parent="1" edge="1">
          <mxGeometry width="50" height="50" relative="1" as="geometry">
            <mxPoint x="1290" y="835" as="sourcePoint"/>
            <mxPoint x="1289.5" y="50" as="targetPoint"/>
          </mxGeometry>
        </mxCell>
        <mxCell id="7SxAcVkQmoZjiOWq1pf1-59" value="loop" style="rounded=0;whiteSpace=wrap;html=1;" parent="1" vertex="1">
          <mxGeometry x="210" y="420" width="60" height="20" as="geometry"/>
        </mxCell>
        <mxCell id="7SxAcVkQmoZjiOWq1pf1-60" value="for all items in client&#39;s cart" style="text;html=1;strokeColor=none;fillColor=none;align=center;verticalAlign=middle;whiteSpace=wrap;rounded=0;" parent="1" vertex="1">
          <mxGeometry x="210" y="470" width="40" height="20" as="geometry"/>
        </mxCell>
        <mxCell id="7SxAcVkQmoZjiOWq1pf1-63" value="" style="endArrow=classic;html=1;" parent="1" edge="1">
          <mxGeometry width="50" height="50" relative="1" as="geometry">
            <mxPoint x="300" y="350" as="sourcePoint"/>
            <mxPoint x="760" y="350" as="targetPoint"/>
          </mxGeometry>
        </mxCell>
        <mxCell id="7SxAcVkQmoZjiOWq1pf1-64" value="createOrder(client)" style="text;html=1;align=center;verticalAlign=middle;resizable=0;points=[];labelBackgroundColor=#ffffff;" parent="7SxAcVkQmoZjiOWq1pf1-63" vertex="1" connectable="0">
          <mxGeometry x="0.7348" relative="1" as="geometry">
            <mxPoint x="-49" as="offset"/>
          </mxGeometry>
        </mxCell>
        <mxCell id="BWwTkyQzAVA0nwTKk7PY-25" value="" style="endArrow=none;dashed=1;html=1;" parent="1" target="BWwTkyQzAVA0nwTKk7PY-21" edge="1">
          <mxGeometry width="50" height="50" relative="1" as="geometry">
            <mxPoint x="430" y="840" as="sourcePoint"/>
            <mxPoint x="429.5" y="60.00000000000006" as="targetPoint"/>
          </mxGeometry>
        </mxCell>
        <mxCell id="BWwTkyQzAVA0nwTKk7PY-31" value="" style="endArrow=none;dashed=1;html=1;" parent="1" target="BWwTkyQzAVA0nwTKk7PY-30" edge="1">
          <mxGeometry width="50" height="50" relative="1" as="geometry">
            <mxPoint x="590" y="840" as="sourcePoint"/>
            <mxPoint x="589.5" y="60.00000000000006" as="targetPoint"/>
          </mxGeometry>
        </mxCell>
        <mxCell id="7SxAcVkQmoZjiOWq1pf1-32" value="" style="endArrow=classic;html=1;dashed=1;" parent="1" edge="1">
          <mxGeometry width="50" height="50" relative="1" as="geometry">
            <mxPoint x="430" y="105" as="sourcePoint"/>
            <mxPoint x="300" y="105" as="targetPoint"/>
          </mxGeometry>
        </mxCell>
        <mxCell id="7SxAcVkQmoZjiOWq1pf1-33" value="clientReference" style="text;html=1;align=center;verticalAlign=middle;resizable=0;points=[];labelBackgroundColor=#ffffff;" parent="7SxAcVkQmoZjiOWq1pf1-32" vertex="1" connectable="0">
          <mxGeometry x="-0.4" y="1" relative="1" as="geometry">
            <mxPoint x="-21" y="4" as="offset"/>
          </mxGeometry>
        </mxCell>
        <mxCell id="7SxAcVkQmoZjiOWq1pf1-61" value="" style="endArrow=classic;html=1;dashed=1;" parent="1" edge="1">
          <mxGeometry width="50" height="50" relative="1" as="geometry">
            <mxPoint x="760" y="370" as="sourcePoint"/>
            <mxPoint x="300" y="370" as="targetPoint"/>
          </mxGeometry>
        </mxCell>
        <mxCell id="7SxAcVkQmoZjiOWq1pf1-62" value="newOrder" style="text;html=1;align=center;verticalAlign=middle;resizable=0;points=[];labelBackgroundColor=#ffffff;" parent="7SxAcVkQmoZjiOWq1pf1-61" vertex="1" connectable="0">
          <mxGeometry x="-0.5087" relative="1" as="geometry">
            <mxPoint as="offset"/>
          </mxGeometry>
        </mxCell>
        <mxCell id="bvHiQw0GbugnLKVl-1VQ-2" value="" style="endArrow=classic;html=1;" edge="1" parent="1">
          <mxGeometry width="50" height="50" relative="1" as="geometry">
            <mxPoint x="310" y="385" as="sourcePoint"/>
            <mxPoint x="590" y="385" as="targetPoint"/>
          </mxGeometry>
        </mxCell>
        <mxCell id="bvHiQw0GbugnLKVl-1VQ-3" value="getCart" style="text;html=1;align=center;verticalAlign=middle;resizable=0;points=[];labelBackgroundColor=#ffffff;" vertex="1" connectable="0" parent="bvHiQw0GbugnLKVl-1VQ-2">
          <mxGeometry x="0.3786" y="-3" relative="1" as="geometry">
            <mxPoint as="offset"/>
          </mxGeometry>
        </mxCell>
        <mxCell id="bvHiQw0GbugnLKVl-1VQ-4" value="" style="endArrow=classic;html=1;entryX=1;entryY=0.459;entryDx=0;entryDy=0;entryPerimeter=0;dashed=1;" edge="1" parent="1" target="BWwTkyQzAVA0nwTKk7PY-7">
          <mxGeometry width="50" height="50" relative="1" as="geometry">
            <mxPoint x="590" y="410" as="sourcePoint"/>
            <mxPoint x="640" y="345" as="targetPoint"/>
          </mxGeometry>
        </mxCell>
        <mxCell id="bvHiQw0GbugnLKVl-1VQ-5" value="shoppingCart" style="text;html=1;align=center;verticalAlign=middle;resizable=0;points=[];labelBackgroundColor=#ffffff;" vertex="1" connectable="0" parent="bvHiQw0GbugnLKVl-1VQ-4">
          <mxGeometry x="-0.1928" y="-1" relative="1" as="geometry">
            <mxPoint x="23" as="offset"/>
          </mxGeometry>
        </mxCell>
        <mxCell id="bvHiQw0GbugnLKVl-1VQ-6" value="" style="endArrow=classic;html=1;" edge="1" parent="1">
          <mxGeometry width="50" height="50" relative="1" as="geometry">
            <mxPoint x="310" y="455" as="sourcePoint"/>
            <mxPoint x="990" y="455" as="targetPoint"/>
          </mxGeometry>
        </mxCell>
        <mxCell id="bvHiQw0GbugnLKVl-1VQ-7" value="isInStock(quantity)" style="text;html=1;align=center;verticalAlign=middle;resizable=0;points=[];labelBackgroundColor=#ffffff;" vertex="1" connectable="0" parent="bvHiQw0GbugnLKVl-1VQ-6">
          <mxGeometry x="0.0441" y="-1" relative="1" as="geometry">
            <mxPoint as="offset"/>
          </mxGeometry>
        </mxCell>
        <mxCell id="bvHiQw0GbugnLKVl-1VQ-8" value="" style="endArrow=classic;html=1;dashed=1;" edge="1" parent="1">
          <mxGeometry width="50" height="50" relative="1" as="geometry">
            <mxPoint x="990" y="490" as="sourcePoint"/>
            <mxPoint x="313" y="490" as="targetPoint"/>
          </mxGeometry>
        </mxCell>
        <mxCell id="bvHiQw0GbugnLKVl-1VQ-9" value="inStock/(not)inStock" style="text;html=1;align=center;verticalAlign=middle;resizable=0;points=[];labelBackgroundColor=#ffffff;" vertex="1" connectable="0" parent="bvHiQw0GbugnLKVl-1VQ-8">
          <mxGeometry x="-0.0665" y="5" relative="1" as="geometry">
            <mxPoint as="offset"/>
          </mxGeometry>
        </mxCell>
        <mxCell id="bvHiQw0GbugnLKVl-1VQ-10" value="" style="rounded=0;whiteSpace=wrap;html=1;" vertex="1" parent="1">
          <mxGeometry x="240" y="520" width="810" height="90" as="geometry"/>
        </mxCell>
        <mxCell id="BWwTkyQzAVA0nwTKk7PY-6" value="" style="group" parent="1" vertex="1" connectable="0">
          <mxGeometry x="290" y="70" width="760" height="770" as="geometry"/>
        </mxCell>
        <mxCell id="BWwTkyQzAVA0nwTKk7PY-8" value="" style="endArrow=none;dashed=1;html=1;" parent="BWwTkyQzAVA0nwTKk7PY-6" target="BWwTkyQzAVA0nwTKk7PY-7" edge="1">
          <mxGeometry width="50" height="50" relative="1" as="geometry">
            <mxPoint x="10" y="770.0000000000001" as="sourcePoint"/>
            <mxPoint x="9.5" y="-41.62162162162174" as="targetPoint"/>
          </mxGeometry>
        </mxCell>
        <mxCell id="bvHiQw0GbugnLKVl-1VQ-23" value="" style="rounded=0;whiteSpace=wrap;html=1;" vertex="1" parent="BWwTkyQzAVA0nwTKk7PY-6">
          <mxGeometry x="-50" y="550" width="810" height="100" as="geometry"/>
        </mxCell>
        <mxCell id="BWwTkyQzAVA0nwTKk7PY-7" value="" style="rounded=0;whiteSpace=wrap;html=1;" parent="BWwTkyQzAVA0nwTKk7PY-6" vertex="1">
          <mxGeometry width="20" height="738.7837837837839" as="geometry"/>
        </mxCell>
        <mxCell id="bvHiQw0GbugnLKVl-1VQ-24" value="opt" style="rounded=0;whiteSpace=wrap;html=1;" vertex="1" parent="BWwTkyQzAVA0nwTKk7PY-6">
          <mxGeometry x="-50" y="550" width="50" height="20" as="geometry"/>
        </mxCell>
        <mxCell id="bvHiQw0GbugnLKVl-1VQ-25" value="&lt;div&gt;item&lt;/div&gt;&lt;div&gt;not&lt;/div&gt;&lt;div&gt;inStock&lt;br&gt;&lt;/div&gt;" style="text;html=1;strokeColor=none;fillColor=none;align=center;verticalAlign=middle;whiteSpace=wrap;rounded=0;" vertex="1" parent="BWwTkyQzAVA0nwTKk7PY-6">
          <mxGeometry x="-45" y="590" width="40" height="20" as="geometry"/>
        </mxCell>
        <mxCell id="bvHiQw0GbugnLKVl-1VQ-12" value="&lt;div&gt;item is &lt;br&gt;&lt;/div&gt;&lt;div&gt;inStock&lt;br&gt;&lt;/div&gt;" style="text;html=1;strokeColor=none;fillColor=none;align=center;verticalAlign=middle;whiteSpace=wrap;rounded=0;" vertex="1" parent="1">
          <mxGeometry x="245" y="550" width="40" height="20" as="geometry"/>
        </mxCell>
        <mxCell id="bvHiQw0GbugnLKVl-1VQ-11" value="opt" style="rounded=0;whiteSpace=wrap;html=1;" vertex="1" parent="1">
          <mxGeometry x="240" y="520" width="50" height="20" as="geometry"/>
        </mxCell>
        <mxCell id="7SxAcVkQmoZjiOWq1pf1-24" value="" style="endArrow=classic;html=1;" parent="1" edge="1">
          <mxGeometry width="50" height="50" relative="1" as="geometry">
            <mxPoint x="160" y="80" as="sourcePoint"/>
            <mxPoint x="300" y="80" as="targetPoint"/>
          </mxGeometry>
        </mxCell>
        <mxCell id="7SxAcVkQmoZjiOWq1pf1-25" value="&lt;div&gt;Requests to &lt;br&gt;&lt;/div&gt;&lt;div&gt;place order&lt;br&gt;&lt;/div&gt;" style="text;html=1;align=center;verticalAlign=middle;resizable=0;points=[];labelBackgroundColor=#ffffff;" parent="7SxAcVkQmoZjiOWq1pf1-24" vertex="1" connectable="0">
          <mxGeometry x="-0.3" y="2" relative="1" as="geometry">
            <mxPoint as="offset"/>
          </mxGeometry>
        </mxCell>
        <mxCell id="7SxAcVkQmoZjiOWq1pf1-15" value="" style="endArrow=none;dashed=1;html=1;" parent="1" edge="1">
          <mxGeometry width="50" height="50" relative="1" as="geometry">
            <mxPoint x="760" y="840" as="sourcePoint"/>
            <mxPoint x="759.5" y="60" as="targetPoint"/>
          </mxGeometry>
        </mxCell>
        <mxCell id="7SxAcVkQmoZjiOWq1pf1-16" value="" style="endArrow=none;dashed=1;html=1;" parent="1" target="7SxAcVkQmoZjiOWq1pf1-14" edge="1">
          <mxGeometry width="50" height="50" relative="1" as="geometry">
            <mxPoint x="870" y="830" as="sourcePoint"/>
            <mxPoint x="870" y="55" as="targetPoint"/>
          </mxGeometry>
        </mxCell>
        <mxCell id="bvHiQw0GbugnLKVl-1VQ-17" value="" style="rounded=0;whiteSpace=wrap;html=1;" vertex="1" parent="1">
          <mxGeometry x="850" y="540" width="40" height="20" as="geometry"/>
        </mxCell>
        <mxCell id="7SxAcVkQmoZjiOWq1pf1-28" value="" style="endArrow=none;dashed=1;html=1;" parent="1" edge="1">
          <mxGeometry width="50" height="50" relative="1" as="geometry">
            <mxPoint x="990" y="840" as="sourcePoint"/>
            <mxPoint x="990" y="50" as="targetPoint"/>
          </mxGeometry>
        </mxCell>
        <mxCell id="bvHiQw0GbugnLKVl-1VQ-18" value="" style="endArrow=classic;html=1;" edge="1" parent="1">
          <mxGeometry width="50" height="50" relative="1" as="geometry">
            <mxPoint x="310" y="550" as="sourcePoint"/>
            <mxPoint x="850" y="550" as="targetPoint"/>
          </mxGeometry>
        </mxCell>
        <mxCell id="bvHiQw0GbugnLKVl-1VQ-19" value="addToOrder(product, quantity)" style="text;html=1;align=center;verticalAlign=middle;resizable=0;points=[];labelBackgroundColor=#ffffff;" vertex="1" connectable="0" parent="bvHiQw0GbugnLKVl-1VQ-18">
          <mxGeometry x="-0.4741" y="-2" relative="1" as="geometry">
            <mxPoint as="offset"/>
          </mxGeometry>
        </mxCell>
        <mxCell id="bvHiQw0GbugnLKVl-1VQ-15" value="" style="rounded=0;whiteSpace=wrap;html=1;" vertex="1" parent="1">
          <mxGeometry x="980" y="560" width="20" height="30" as="geometry"/>
        </mxCell>
        <mxCell id="bvHiQw0GbugnLKVl-1VQ-21" value="" style="endArrow=classic;html=1;exitX=1.25;exitY=0.693;exitDx=0;exitDy=0;exitPerimeter=0;" edge="1" parent="1" source="BWwTkyQzAVA0nwTKk7PY-7">
          <mxGeometry width="50" height="50" relative="1" as="geometry">
            <mxPoint x="310" y="585" as="sourcePoint"/>
            <mxPoint x="980" y="583" as="targetPoint"/>
          </mxGeometry>
        </mxCell>
        <mxCell id="bvHiQw0GbugnLKVl-1VQ-22" value="removeFromStock(quantity)" style="text;html=1;align=center;verticalAlign=middle;resizable=0;points=[];labelBackgroundColor=#ffffff;" vertex="1" connectable="0" parent="bvHiQw0GbugnLKVl-1VQ-21">
          <mxGeometry x="-0.5399" relative="1" as="geometry">
            <mxPoint x="-18" as="offset"/>
          </mxGeometry>
        </mxCell>
        <mxCell id="bvHiQw0GbugnLKVl-1VQ-28" value="" style="endArrow=classic;html=1;" edge="1" parent="1">
          <mxGeometry width="50" height="50" relative="1" as="geometry">
            <mxPoint x="310" y="650" as="sourcePoint"/>
            <mxPoint x="990" y="650" as="targetPoint"/>
          </mxGeometry>
        </mxCell>
        <mxCell id="bvHiQw0GbugnLKVl-1VQ-29" value="addToWaitList(order)" style="text;html=1;align=center;verticalAlign=middle;resizable=0;points=[];labelBackgroundColor=#ffffff;" vertex="1" connectable="0" parent="bvHiQw0GbugnLKVl-1VQ-28">
          <mxGeometry x="-0.6441" y="-1" relative="1" as="geometry">
            <mxPoint as="offset"/>
          </mxGeometry>
        </mxCell>
      </root>
    </mxGraphModel>
  </diagram>
</mxfile>
